<?xml version="1.0" standalone="no"?>
<!DOCTYPE svg PUBLIC "-//W3C//DTD SVG 20010904//EN"
 "http://www.w3.org/TR/2001/REC-SVG-20010904/DTD/svg10.dtd">
<svg version="1.0" xmlns="http://www.w3.org/2000/svg"
 width="962.000000pt" height="431.000000pt" viewBox="0 0 962.000000 431.000000"
 preserveAspectRatio="xMidYMid meet">
<metadata>
Created by potrace 1.15, written by Peter Selinger 2001-2017
</metadata>
<g transform="translate(0.000000,431.000000) scale(0.100000,-0.100000)"
fill="#000000" stroke="none">
<path d="M0 2155 l0 -2155 4810 0 4810 0 0 2155 0 2155 -4810 0 -4810 0 0
-2155z m4471 1438 c48 -40 60 -80 58 -186 -1 -51 -6 -103 -11 -117 -6 -14 -10
-131 -10 -260 -1 -211 2 -251 26 -390 17 -97 28 -203 30 -283 2 -70 6 -131 10
-134 3 -4 148 -8 321 -10 281 -3 315 -1 315 13 0 8 24 41 53 72 29 31 74 86
100 122 92 128 113 155 175 224 166 186 211 231 262 264 54 35 209 182 460
433 135 136 158 149 231 129 75 -20 118 -114 83 -182 -17 -33 -118 -142 -204
-222 -25 -22 -110 -104 -190 -182 -80 -78 -172 -161 -205 -185 -68 -49 -202
-182 -210 -209 -3 -10 -16 -25 -29 -33 -13 -9 -46 -45 -75 -81 -47 -60 -49
-66 -29 -66 91 -2 191 -13 236 -26 29 -8 57 -12 62 -9 5 3 28 -1 52 -9 50 -16
103 -26 179 -31 30 -2 88 -7 129 -10 41 -4 108 -8 148 -9 62 -1 72 1 72 16 0
22 46 75 73 84 34 11 402 392 540 559 41 50 149 166 241 258 91 93 166 175
166 183 0 25 90 113 125 123 55 15 86 1 215 -95 199 -148 207 -156 365 -311
167 -164 204 -204 255 -274 19 -26 58 -74 85 -107 72 -87 111 -143 184 -262
121 -199 128 -227 72 -319 -37 -63 -76 -98 -113 -104 -18 -3 -121 -3 -228 -2
-399 7 -1407 8 -1455 2 -262 -36 -794 -26 -1030 19 -158 30 -170 31 -192 23
-12 -4 -55 -6 -95 -3 l-73 6 55 -30 c175 -93 257 -145 369 -231 85 -66 289
-197 331 -213 9 -3 45 -28 80 -55 36 -27 76 -56 90 -65 42 -26 164 -138 177
-161 7 -12 12 -43 13 -68 0 -63 -46 -118 -107 -126 -60 -8 -85 1 -135 49 -56
53 -208 166 -257 192 -20 10 -43 24 -51 31 -8 8 -53 35 -99 60 -75 42 -139 85
-179 123 -31 28 -276 184 -349 221 -43 22 -101 55 -129 73 -106 69 -160 106
-171 119 -9 11 -78 14 -355 14 l-343 0 1 -45 c0 -67 12 -188 18 -199 3 -5 8
-48 12 -95 3 -48 9 -109 13 -136 4 -27 8 -188 8 -357 1 -251 -2 -315 -14 -345
-38 -96 -179 -105 -233 -15 -19 30 -20 52 -20 327 0 188 -5 324 -13 375 -7 44
-12 100 -11 125 1 25 -2 59 -7 75 -4 17 -13 89 -20 160 -6 72 -12 131 -13 133
-2 1 -38 5 -80 8 -42 3 -95 12 -118 20 -26 9 -81 14 -152 14 -107 0 -112 -1
-126 -24 -8 -14 -78 -92 -155 -174 -77 -82 -160 -172 -185 -199 -25 -28 -59
-59 -76 -69 -41 -25 -195 -165 -319 -289 -56 -57 -125 -115 -158 -134 -32 -18
-70 -43 -85 -55 -15 -12 -54 -37 -87 -55 -33 -19 -76 -47 -97 -62 -64 -51
-143 -82 -189 -74 -53 9 -104 58 -113 108 -11 59 24 124 81 149 25 11 67 36
93 56 27 21 66 46 87 57 91 47 234 154 325 243 55 53 133 129 173 169 41 40
92 83 113 97 22 14 66 55 98 93 33 37 81 88 107 113 l49 46 -154 0 c-170 1
-261 7 -328 22 -108 25 -149 33 -196 37 -27 2 -69 8 -94 14 -25 6 -87 11 -139
11 l-93 0 -83 -88 c-77 -82 -92 -93 -212 -152 -70 -36 -157 -82 -192 -103 -35
-21 -103 -51 -150 -67 -190 -62 -370 -139 -424 -182 -62 -49 -110 -54 -177
-18 -32 17 -63 94 -55 137 9 52 74 116 159 157 41 20 80 36 88 36 8 0 18 4 24
8 5 5 41 21 79 37 39 15 79 31 90 36 11 4 56 20 100 35 44 15 94 35 110 44 17
10 96 52 177 94 101 51 158 87 182 114 l35 38 -91 55 c-50 30 -96 56 -102 57
-10 4 -240 115 -491 238 -49 25 -93 44 -97 44 -4 0 -46 18 -93 40 -47 22 -90
40 -94 40 -15 0 -62 58 -70 88 -21 71 33 154 107 167 35 6 123 -19 157 -44 5
-4 37 -18 70 -31 33 -13 105 -47 160 -76 55 -28 121 -59 146 -67 25 -9 72 -32
105 -51 32 -20 62 -36 66 -36 9 0 207 -97 248 -122 19 -12 80 -51 135 -87
l100 -65 105 -2 c58 0 121 -6 140 -12 19 -7 71 -16 115 -21 44 -5 112 -17 150
-26 79 -19 447 -34 430 -17 -31 29 -151 116 -192 138 -58 32 -193 133 -193
145 0 19 -215 223 -277 263 -38 25 -97 69 -133 100 -136 117 -365 244 -454
251 -94 7 -150 85 -126 173 19 72 77 105 168 97 67 -5 97 -16 217 -75 173 -86
208 -109 370 -240 44 -36 105 -82 136 -103 31 -20 121 -101 200 -180 79 -79
164 -157 189 -173 25 -17 79 -52 120 -79 132 -86 225 -170 302 -271 l40 -54
132 0 c72 -1 151 -5 176 -11 72 -15 143 -24 165 -21 19 3 20 10 18 105 -1 56
-9 154 -18 217 -9 63 -22 156 -29 205 -15 103 -12 476 4 564 5 30 10 90 10
133 0 57 5 86 17 105 44 66 137 84 194 36z"/>
<path d="M7553 2940 c-94 -96 -184 -191 -199 -210 -74 -92 -276 -315 -361
-397 -52 -51 -92 -97 -89 -101 2 -4 47 -4 98 0 51 5 418 7 816 6 783 -3 735
-7 692 51 -11 14 -50 67 -87 116 -201 272 -463 542 -673 692 l-25 18 -172
-175z"/>
</g>
</svg>
